<?xml version="1.0" encoding="UTF-8" standalone="no"?>
<!DOCTYPE svg PUBLIC "-//W3C//DTD SVG 1.1//EN" "http://www.w3.org/Graphics/SVG/1.1/DTD/svg11.dtd">
<!-- Generated by graphviz version 2.40.1 (20161225.0304)
 -->
<!-- Title: g Pages: 1 -->
<svg width="1058pt" height="310pt" viewBox="0.00 0.00 1057.76 310.40" xmlns="http://www.w3.org/2000/svg" xmlns:xlink="http://www.w3.org/1999/xlink">
<g id="graph0" class="graph" transform="scale(1 1) rotate(0) translate(4 306.4)">
<title>g</title>
<polygon fill="#ffffff" stroke="transparent" points="-4,4 -4,-306.4 1053.761,-306.4 1053.761,4 -4,4"/>
<!-- &#39;GitHub Software Repository&#39; -->
<g id="node1" class="node">
<title>'GitHub Software Repository'</title>
<ellipse fill="none" stroke="#000000" cx="171.1908" cy="-284.4" rx="128.4898" ry="18"/>
<text text-anchor="middle" x="171.1908" y="-280.2" font-family="Times,serif" font-size="14.00" fill="#000000">'GitHub Software Repository'</text>
</g>
<!-- &#39;GitHub Account&#39; -->
<g id="node2" class="node">
<title>'GitHub Account'</title>
<ellipse fill="none" stroke="#000000" cx="260.1908" cy="-195.6" rx="81.6224" ry="18"/>
<text text-anchor="middle" x="260.1908" y="-191.4" font-family="Times,serif" font-size="14.00" fill="#000000">'GitHub Account'</text>
</g>
<!-- &#39;GitHub Software Repository&#39;&#45;&gt;&#39;GitHub Account&#39; -->
<g id="edge1" class="edge">
<title>'GitHub Software Repository'-&gt;'GitHub Account'</title>
<path fill="none" stroke="#000000" d="M112.4546,-268.2888C91.0454,-259.4631 74.842,-247.1329 87.4712,-231.6 89.185,-229.4921 142.0707,-218.6593 188.8704,-209.4221"/>
<polygon fill="#000000" stroke="#000000" points="189.608,-212.8442 198.7439,-207.479 188.2563,-205.9759 189.608,-212.8442"/>
<text text-anchor="middle" x="162.0506" y="-235.8" font-family="Times,serif" font-size="14.00" fill="#000000">'github repository creator'</text>
</g>
<!-- &#39;GitHub Developer Account&#39; -->
<g id="node8" class="node">
<title>'GitHub Developer Account'</title>
<ellipse fill="none" stroke="#000000" cx="124.1908" cy="-106.8" rx="124.3819" ry="18"/>
<text text-anchor="middle" x="124.1908" y="-102.6" font-family="Times,serif" font-size="14.00" fill="#000000">'GitHub Developer Account'</text>
</g>
<!-- &#39;GitHub Software Repository&#39;&#45;&gt;&#39;GitHub Developer Account&#39; -->
<g id="edge15" class="edge">
<title>'GitHub Software Repository'-&gt;'GitHub Developer Account'</title>
<path fill="none" stroke="#000000" d="M112.9779,-268.3227C100.9713,-263.2419 89.0093,-256.7108 79.1908,-248.4 65.4357,-236.7571 63.1784,-230.9708 58.3808,-213.6 54.1213,-198.1774 52.5287,-192.4914 58.3808,-177.6 65.4102,-159.7127 79.3207,-143.6604 92.549,-131.3809"/>
<polygon fill="#000000" stroke="#000000" points="95.0372,-133.8526 100.2016,-124.6016 90.3954,-128.6129 95.0372,-133.8526"/>
<text text-anchor="middle" x="114.5958" y="-191.4" font-family="Times,serif" font-size="14.00" fill="#000000">'github contributor'</text>
</g>
<!-- &#39;GitHub Account&#39;&#45;&gt;&#39;GitHub Software Repository&#39; -->
<g id="edge11" class="edge">
<title>'GitHub Account'-&gt;'GitHub Software Repository'</title>
<path fill="none" stroke="#000000" d="M254.7018,-213.8701C250.6809,-224.8752 244.3195,-238.6071 235.1908,-248.4 230.5769,-253.3496 225.125,-257.7943 219.381,-261.7307"/>
<polygon fill="#000000" stroke="#000000" points="217.4084,-258.8369 210.8198,-267.1339 221.1445,-264.7565 217.4084,-258.8369"/>
<text text-anchor="middle" x="327.6309" y="-235.8" font-family="Times,serif" font-size="14.00" fill="#000000">'creator of github repository'</text>
</g>
<!-- &#39;GitHub Account&#39;&#45;&gt;&#39;GitHub Software Repository&#39; -->
<g id="edge17" class="edge">
<title>'GitHub Account'-&gt;'GitHub Software Repository'</title>
<path fill="none" stroke="#000000" d="M332.7339,-204.0015C367.0442,-209.6198 402.7713,-218.4443 413.1908,-231.6 417.8266,-237.4532 418.0666,-242.7452 413.1908,-248.4 404.5395,-258.4335 346.8452,-267.2376 289.9639,-273.6275"/>
<polygon fill="#000000" stroke="#000000" points="289.2952,-270.1799 279.7377,-274.7522 290.0604,-277.1379 289.2952,-270.1799"/>
<text text-anchor="middle" x="483.843" y="-235.8" font-family="Times,serif" font-size="14.00" fill="#000000">'likes github repository'</text>
</g>
<!-- &#39;GitHub Account&#39;&#45;&gt;&#39;GitHub Developer Account&#39; -->
<g id="edge13" class="edge">
<title>'GitHub Account'-&gt;'GitHub Developer Account'</title>
<path fill="none" stroke="#000000" d="M200.8505,-183.2226C166.9597,-175.5598 130.2079,-165.9961 125.1964,-159.6 119.8497,-152.7761 118.3155,-143.7899 118.5068,-135.1698"/>
<polygon fill="#000000" stroke="#000000" points="122.0108,-135.2886 119.4557,-125.0065 115.0412,-134.6378 122.0108,-135.2886"/>
<text text-anchor="middle" x="150.688" y="-147" font-family="Times,serif" font-size="14.00" fill="#000000">sponsors</text>
</g>
<!-- Repository -->
<g id="node3" class="node">
<title>Repository</title>
<ellipse fill="none" stroke="#000000" cx="879.1908" cy="-106.8" rx="53.3302" ry="18"/>
<text text-anchor="middle" x="879.1908" y="-102.6" font-family="Times,serif" font-size="14.00" fill="#000000">Repository</text>
</g>
<!-- &#39;User Account&#39; -->
<g id="node4" class="node">
<title>'User Account'</title>
<ellipse fill="none" stroke="#000000" cx="667.1908" cy="-18" rx="70.6457" ry="18"/>
<text text-anchor="middle" x="667.1908" y="-13.8" font-family="Times,serif" font-size="14.00" fill="#000000">'User Account'</text>
</g>
<!-- Repository&#45;&gt;&#39;User Account&#39; -->
<g id="edge2" class="edge">
<title>Repository-&gt;'User Account'</title>
<path fill="none" stroke="#000000" d="M876.1976,-88.7364C873.3134,-77.0907 867.7556,-62.5719 857.1908,-54 839.8001,-39.8899 788.9349,-30.7094 744.2076,-25.1526"/>
<polygon fill="#000000" stroke="#000000" points="744.5268,-21.6659 734.1819,-23.9534 743.6954,-28.6163 744.5268,-21.6659"/>
<text text-anchor="middle" x="921.8651" y="-58.2" font-family="Times,serif" font-size="14.00" fill="#000000">'repository author'</text>
</g>
<!-- Commit -->
<g id="node5" class="node">
<title>Commit</title>
<ellipse fill="none" stroke="#000000" cx="446.1908" cy="-195.6" rx="42.8945" ry="18"/>
<text text-anchor="middle" x="446.1908" y="-191.4" font-family="Times,serif" font-size="14.00" fill="#000000">Commit</text>
</g>
<!-- ModifiedFile -->
<g id="node6" class="node">
<title>ModifiedFile</title>
<ellipse fill="none" stroke="#000000" cx="342.1908" cy="-106.8" rx="61.9943" ry="18"/>
<text text-anchor="middle" x="342.1908" y="-102.6" font-family="Times,serif" font-size="14.00" fill="#000000">ModifiedFile</text>
</g>
<!-- Commit&#45;&gt;ModifiedFile -->
<g id="edge3" class="edge">
<title>Commit-&gt;ModifiedFile</title>
<path fill="none" stroke="#000000" d="M426.2383,-179.6601C418.5958,-173.4721 409.8358,-166.2785 402.007,-159.6 393.4778,-152.3241 391.5844,-150.2319 383.1908,-142.8 378.7383,-138.8577 374.0038,-134.6838 369.3935,-130.6292"/>
<polygon fill="#000000" stroke="#000000" points="371.6464,-127.9496 361.8234,-123.9798 367.0268,-133.2089 371.6464,-127.9496"/>
<text text-anchor="middle" x="453.2827" y="-147" font-family="Times,serif" font-size="14.00" fill="#000000">'has modified file'</text>
</g>
<!-- Branch -->
<g id="node7" class="node">
<title>Branch</title>
<ellipse fill="none" stroke="#000000" cx="892.1908" cy="-18" rx="38.844" ry="18"/>
<text text-anchor="middle" x="892.1908" y="-13.8" font-family="Times,serif" font-size="14.00" fill="#000000">Branch</text>
</g>
<!-- Commit&#45;&gt;Branch -->
<g id="edge5" class="edge">
<title>Commit-&gt;Branch</title>
<path fill="none" stroke="#000000" d="M489.0756,-193.8457C594.985,-188.8313 865.7994,-171.6554 941.1908,-124.8 971.346,-106.0587 997.8608,-83.5578 978.1908,-54 969.2166,-40.5146 954.1159,-32.0711 939.0502,-26.7884"/>
<polygon fill="#000000" stroke="#000000" points="939.8073,-23.3592 929.2198,-23.7522 937.7415,-30.0474 939.8073,-23.3592"/>
<text text-anchor="middle" x="1014.9759" y="-102.6" font-family="Times,serif" font-size="14.00" fill="#000000">'has branch'</text>
</g>
<!-- Commit&#45;&gt;&#39;GitHub Developer Account&#39; -->
<g id="edge6" class="edge">
<title>Commit-&gt;'GitHub Developer Account'</title>
<path fill="none" stroke="#000000" d="M407.4597,-187.698C390.2678,-184.3362 369.7627,-180.5252 351.1908,-177.6 287.9037,-167.6318 268.4978,-181.1613 208.1676,-159.6 197.7377,-155.8725 176.5879,-142.5608 158.124,-130.2372"/>
<polygon fill="#000000" stroke="#000000" points="159.8558,-127.1837 149.6069,-124.4985 155.9443,-132.9889 159.8558,-127.1837"/>
<text text-anchor="middle" x="252.7024" y="-147" font-family="Times,serif" font-size="14.00" fill="#000000">'has committer'</text>
</g>
<!-- &#39;Software Repository&#39; -->
<g id="node9" class="node">
<title>'Software Repository'</title>
<ellipse fill="none" stroke="#000000" cx="532.1908" cy="-106.8" rx="97.2275" ry="18"/>
<text text-anchor="middle" x="532.1908" y="-102.6" font-family="Times,serif" font-size="14.00" fill="#000000">'Software Repository'</text>
</g>
<!-- Commit&#45;&gt;&#39;Software Repository&#39; -->
<g id="edge12" class="edge">
<title>Commit-&gt;'Software Repository'</title>
<path fill="none" stroke="#000000" d="M477.4414,-183.2433C488.9338,-177.459 501.2982,-169.605 510.1908,-159.6 516.5179,-152.4814 521.192,-143.286 524.5637,-134.569"/>
<polygon fill="#000000" stroke="#000000" points="527.8891,-135.6614 527.8356,-125.0667 521.2705,-133.3824 527.8891,-135.6614"/>
<text text-anchor="middle" x="560.2378" y="-147" font-family="Times,serif" font-size="14.00" fill="#000000">'is commit of'</text>
</g>
<!-- ModifiedFile&#45;&gt;Commit -->
<g id="edge4" class="edge">
<title>ModifiedFile-&gt;Commit</title>
<path fill="none" stroke="#000000" d="M318.3114,-123.4942C306.1902,-134.0267 295.776,-147.8179 304.932,-159.6 310.7767,-167.1211 358.5988,-178.2462 397.0054,-186.1354"/>
<polygon fill="#000000" stroke="#000000" points="396.5436,-189.6129 407.0394,-188.168 397.9334,-182.7522 396.5436,-189.6129"/>
<text text-anchor="middle" x="341.3202" y="-147" font-family="Times,serif" font-size="14.00" fill="#000000">'modified in'</text>
</g>
<!-- &#39;Software Repository&#39;&#45;&gt;&#39;User Account&#39; -->
<g id="edge7" class="edge">
<title>'Software Repository'-&gt;'User Account'</title>
<path fill="none" stroke="#000000" d="M569.7418,-90.0896C581.1178,-84.4855 593.4403,-77.8526 604.1908,-70.8 617.0572,-62.3594 630.2619,-51.6618 641.2372,-42.106"/>
<polygon fill="#000000" stroke="#000000" points="643.6403,-44.6529 648.7981,-35.3984 638.9948,-39.4165 643.6403,-44.6529"/>
<text text-anchor="middle" x="691.086" y="-58.2" font-family="Times,serif" font-size="14.00" fill="#000000">'repository contributor'</text>
</g>
<!-- &#39;Software Repository&#39;&#45;&gt;Commit -->
<g id="edge10" class="edge">
<title>'Software Repository'-&gt;Commit</title>
<path fill="none" stroke="#000000" d="M585.8384,-121.8477C608.1166,-130.8232 626.1087,-143.6007 613.1908,-159.6 598.9172,-177.2784 541.9088,-186.691 498.4323,-191.3996"/>
<polygon fill="#000000" stroke="#000000" points="497.8561,-187.9403 488.2658,-192.4432 498.571,-194.9037 497.8561,-187.9403"/>
<text text-anchor="middle" x="654.3195" y="-147" font-family="Times,serif" font-size="14.00" fill="#000000">'has commit'</text>
</g>
<!-- &#39;Software Repository&#39;&#45;&gt;Branch -->
<g id="edge9" class="edge">
<title>'Software Repository'-&gt;Branch</title>
<path fill="none" stroke="#000000" d="M616.6996,-97.8236C670.8271,-91.2508 735.5608,-81.6179 761.1908,-70.8 772.6656,-65.9567 772.5818,-59.7682 783.6206,-54 803.6456,-43.5361 827.3164,-35.2623 847.4369,-29.2989"/>
<polygon fill="#000000" stroke="#000000" points="848.6467,-32.5932 857.2962,-26.4747 846.719,-25.8638 848.6467,-32.5932"/>
<text text-anchor="middle" x="817.9759" y="-58.2" font-family="Times,serif" font-size="14.00" fill="#000000">'has branch'</text>
</g>
<!-- &#39;Software Repository&#39;&#45;&gt;&#39;Software Repository&#39; -->
<g id="edge16" class="edge">
<title>'Software Repository'-&gt;'Software Repository'</title>
<path fill="none" stroke="#000000" d="M627.4662,-110.3923C639.4307,-109.7591 647.3045,-108.5617 647.3045,-106.8 647.3045,-105.6163 643.7501,-104.6874 637.7888,-104.0132"/>
<polygon fill="#000000" stroke="#000000" points="637.7082,-100.4964 627.4662,-103.2077 637.1636,-107.4752 637.7082,-100.4964"/>
<text text-anchor="middle" x="674.7053" y="-102.6" font-family="Times,serif" font-size="14.00" fill="#000000">'has fork'</text>
</g>
<!-- &#39;Software Repository&#39;&#45;&gt;&#39;Software Repository&#39; -->
<g id="edge19" class="edge">
<title>'Software Repository'-&gt;'Software Repository'</title>
<path fill="none" stroke="#000000" d="M619.284,-114.9129C662.1068,-115.7133 702.1061,-113.009 702.1061,-106.8 702.1061,-101.1003 668.4,-98.354 629.7449,-98.5609"/>
<polygon fill="#000000" stroke="#000000" points="629.2411,-95.0666 619.284,-98.6871 629.3256,-102.0661 629.2411,-95.0666"/>
<text text-anchor="middle" x="740.3905" y="-102.6" font-family="Times,serif" font-size="14.00" fill="#000000">'forked from'</text>
</g>
<!-- Software -->
<g id="node10" class="node">
<title>Software</title>
<ellipse fill="none" stroke="#000000" cx="484.1908" cy="-18" rx="45.7829" ry="18"/>
<text text-anchor="middle" x="484.1908" y="-13.8" font-family="Times,serif" font-size="14.00" fill="#000000">Software</text>
</g>
<!-- &#39;Software Repository&#39;&#45;&gt;Software -->
<g id="edge14" class="edge">
<title>'Software Repository'-&gt;Software</title>
<path fill="none" stroke="#000000" d="M453.0711,-96.2441C423.4006,-90.5258 394.669,-82.2385 385.7012,-70.8 368.8868,-49.3531 400.1778,-35.5454 431.8452,-27.4507"/>
<polygon fill="#000000" stroke="#000000" points="432.7152,-30.8414 441.6323,-25.1198 431.0934,-24.0319 432.7152,-30.8414"/>
<text text-anchor="middle" x="441.9356" y="-58.2" font-family="Times,serif" font-size="14.00" fill="#000000">'related to software'</text>
</g>
<!-- Topic -->
<g id="node11" class="node">
<title>Topic</title>
<ellipse fill="none" stroke="#000000" cx="302.1908" cy="-18" rx="33.6266" ry="18"/>
<text text-anchor="middle" x="302.1908" y="-13.8" font-family="Times,serif" font-size="14.00" fill="#000000">Topic</text>
</g>
<!-- &#39;Software Repository&#39;&#45;&gt;Topic -->
<g id="edge18" class="edge">
<title>'Software Repository'-&gt;Topic</title>
<path fill="none" stroke="#000000" d="M457.5214,-95.2799C396.3486,-85.6948 319.4164,-73.2372 316.7146,-70.8 309.7391,-64.5076 305.9846,-55.2064 304.0039,-46.1565"/>
<polygon fill="#000000" stroke="#000000" points="307.4526,-45.5557 302.4442,-36.2194 300.5372,-46.6412 307.4526,-45.5557"/>
<text text-anchor="middle" x="345.9289" y="-58.2" font-family="Times,serif" font-size="14.00" fill="#000000">'has topic'</text>
</g>
<!-- Software&#45;&gt;&#39;Software Repository&#39; -->
<g id="edge8" class="edge">
<title>Software-&gt;'Software Repository'</title>
<path fill="none" stroke="#000000" d="M493.7261,-35.6402C500.5594,-48.282 509.8881,-65.5401 517.6472,-79.8943"/>
<polygon fill="#000000" stroke="#000000" points="514.6431,-81.6972 522.4773,-88.83 520.801,-78.3686 514.6431,-81.6972"/>
<text text-anchor="middle" x="556.3118" y="-58.2" font-family="Times,serif" font-size="14.00" fill="#000000">'has repository'</text>
</g>
</g>
</svg>